<?xml version="1.0" encoding="UTF-8" standalone="no"?>
<svg
   width="380.478"
   height="100"
   viewBox="0 0 380.478 100"
   fill="none"
   version="1.1"
   id="svg9"
   sodipodi:docname="astro.svg"
   inkscape:version="1.4.2 (ebf0e940, 2025-05-08)"
   xmlns:inkscape="http://www.inkscape.org/namespaces/inkscape"
   xmlns:sodipodi="http://sodipodi.sourceforge.net/DTD/sodipodi-0.dtd"
   xmlns="http://www.w3.org/2000/svg"
   xmlns:svg="http://www.w3.org/2000/svg">
  <sodipodi:namedview
     id="namedview9"
     pagecolor="#ffffff"
     bordercolor="#000000"
     borderopacity="0.25"
     inkscape:showpageshadow="2"
     inkscape:pageopacity="0.0"
     inkscape:pagecheckerboard="0"
     inkscape:deskcolor="#d1d1d1"
     inkscape:zoom="1.8086957"
     inkscape:cx="189.91587"
     inkscape:cy="44.230769"
     inkscape:window-width="1512"
     inkscape:window-height="921"
     inkscape:window-x="0"
     inkscape:window-y="299"
     inkscape:window-maximized="1"
     inkscape:current-layer="svg9" />
  <path
     d="m 25.7846,85.175 c -4.5177,-4.13 -5.8365,-12.807 -3.9543,-19.093 3.2636,3.963 7.7855,5.219 12.4694,5.927 7.2308,1.094 14.3321,0.685 21.0493,-2.62 0.7684,-0.378 1.4785,-0.882 2.3182,-1.391 0.6302,1.828 0.7943,3.674 0.5741,5.553 -0.5353,4.576 -2.8125,8.111 -6.4344,10.79 -1.4483,1.072 -2.9808,2.03 -4.4766,3.041 -4.5954,3.105 -5.8386,6.747 -4.1119,12.045 0.041,0.129 0.0777,0.258 0.1706,0.573 -2.3463,-1.05 -4.0601,-2.579 -5.366,-4.589 -1.3792,-2.122 -2.0354,-4.469 -2.0699,-7.008 -0.0173,-1.236 -0.0173,-2.483 -0.1835,-3.701 -0.4058,-2.97 -1.8002,-4.3 -4.427,-4.377 -2.6959,-0.078 -4.8285,1.588 -5.394,4.213 -0.0432,0.201 -0.1058,0.4 -0.1683,0.634 z"
     fill="#ffffff"
     id="path1" />
  <path
     d="m 25.7846,85.175 c -4.5177,-4.13 -5.8365,-12.807 -3.9543,-19.093 3.2636,3.963 7.7855,5.219 12.4694,5.927 7.2308,1.094 14.3321,0.685 21.0493,-2.62 0.7684,-0.378 1.4785,-0.882 2.3182,-1.391 0.6302,1.828 0.7943,3.674 0.5741,5.553 -0.5353,4.576 -2.8125,8.111 -6.4344,10.79 -1.4483,1.072 -2.9808,2.03 -4.4766,3.041 -4.5954,3.105 -5.8386,6.747 -4.1119,12.045 0.041,0.129 0.0777,0.258 0.1706,0.573 -2.3463,-1.05 -4.0601,-2.579 -5.366,-4.589 -1.3792,-2.122 -2.0354,-4.469 -2.0699,-7.008 -0.0173,-1.236 -0.0173,-2.483 -0.1835,-3.701 -0.4058,-2.97 -1.8002,-4.3 -4.427,-4.377 -2.6959,-0.078 -4.8285,1.588 -5.394,4.213 -0.0432,0.201 -0.1058,0.4 -0.1683,0.634 z"
     fill="url(#paint0_linear_1_33)"
     id="path2"
     style="fill:url(#paint0_linear_1_33)" />
  <path
     d="m 0,65.034 c 0,0 13.3775,-6.5163 26.7924,-6.5163 L 36.9068,27.2155 c 0.3787,-1.5138 1.4843,-2.5426 2.7325,-2.5426 1.2482,0 2.3539,1.0288 2.7326,2.5426 l 10.1143,31.3022 c 15.8878,0 26.7928,6.5163 26.7928,6.5163 0,0 -22.7232,-61.901 -22.7676,-62.0252 C 55.8592,1.1787 54.7583,0 53.274,0 H 26.007 C 24.5227,0 23.4662,1.1787 22.7696,3.0088 22.7205,3.1307 0,65.034 0,65.034 Z"
     fill="#ffffff"
     id="path3" />
  <path
     d="m 141.043,45.1227 c 0,5.4852 -6.823,8.7611 -16.27,8.7611 -6.149,0 -8.323,-1.5237 -8.323,-4.7234 0,-3.3521 2.699,-4.9519 8.847,-4.9519 5.549,0 10.272,0.0761 15.746,0.7618 z m 0.075,-6.7804 c -3.374,-0.7618 -8.473,-1.2189 -14.546,-1.2189 -17.695,0 -26.017,4.1901 -26.017,13.9416 0,10.1325 5.698,14.018 18.894,14.018 11.172,0 18.744,-2.8189 21.519,-9.7517 h 0.449 c -0.075,1.6761 -0.149,3.3521 -0.149,4.6472 0,3.5807 0.599,3.8854 3.523,3.8854 h 13.796 c -0.75,-2.1331 -1.199,-8.1517 -1.199,-13.3322 0,-5.5614 0.224,-9.7515 0.224,-15.3891 0,-11.5038 -6.897,-18.8175 -28.491,-18.8175 -9.297,0 -19.644,1.5999 -27.516,3.9616 0.749,3.1235 1.799,9.4468 2.324,13.5607 6.823,-3.1997 16.495,-4.571 23.993,-4.571 10.346,0 13.196,2.3617 13.196,7.1613 z"
     fill="#ffffff"
     id="path4" />
  <path
     d="m 178.971,48.3224 c -1.874,0.2285 -4.424,0.2285 -7.048,0.2285 -2.774,0 -5.323,-0.0761 -7.048,-0.3047 0,0.6095 -0.075,1.2951 -0.075,1.9046 0,9.523 6.224,15.0842 28.117,15.0842 20.618,0 27.291,-5.485 27.291,-15.1604 0,-9.1421 -4.423,-13.6369 -23.992,-14.6273 -15.221,-0.6857 -16.57,-2.3617 -16.57,-4.2663 0,-2.2093 1.949,-3.3521 12.146,-3.3521 10.572,0 13.421,1.4475 13.421,4.4949 v 0.6856 c 1.5,-0.0762 4.199,-0.1523 6.973,-0.1523 2.624,0 5.473,0.0761 7.123,0.2285 0,-0.6857 0.075,-1.2951 0.075,-1.8284 0,-11.1991 -9.298,-14.8559 -27.292,-14.8559 -20.244,0 -27.067,4.952 -27.067,14.6273 0,8.685 5.474,14.0941 24.893,14.9321 14.32,0.4571 15.895,2.057 15.895,4.2663 0,2.3617 -2.324,3.4283 -12.371,3.4283 -11.547,0 -14.471,-1.5999 -14.471,-4.8758 z"
     fill="#ffffff"
     id="path5" />
  <path
     d="m 244.955,8.1734 c -5.473,5.1044 -15.295,10.2087 -20.768,11.58 0.075,2.8188 0.075,7.9993 0.075,10.8181 l 5.023,0.0762 c -0.075,5.4091 -0.15,11.9609 -0.15,16.3034 0,10.1324 5.323,17.7509 21.893,17.7509 6.973,0 11.622,-0.7619 17.395,-1.9808 -0.6,-3.7331 -1.275,-9.4469 -1.5,-13.7893 -3.448,1.1427 -7.797,1.7522 -12.596,1.7522 -6.673,0 -9.372,-1.8284 -9.372,-7.0851 0,-4.571 0,-8.8374 0.075,-12.7989 8.548,0.0762 17.095,0.2285 22.118,0.3809 -0.075,-3.9616 0.075,-9.6754 0.3,-13.4846 -7.272,0.1524 -15.445,0.2286 -22.193,0.2286 0.075,-3.3521 0.15,-6.5518 0.225,-9.7516 z"
     fill="#ffffff"
     id="path6" />
  <path
     d="m 289.736,28.286 c 0.075,-3.9616 0.15,-7.3136 0.225,-10.5896 H 274.89 c 0.225,6.5519 0.225,13.2561 0.225,23.0838 0,9.8277 -0.075,16.6081 -0.225,23.0837 h 17.245 c -0.3,-4.571 -0.375,-12.2656 -0.375,-18.8174 0,-10.361 4.199,-13.3322 13.721,-13.3322 4.424,0 7.573,0.5333 10.347,1.5237 0.075,-3.8854 0.825,-11.4276 1.274,-14.7797 -2.849,-0.838 -5.998,-1.3713 -9.822,-1.3713 -8.172,-0.0762 -14.17,3.2759 -16.944,11.2752 z"
     fill="#ffffff"
     id="path7" />
  <path
     d="m 364.808,40.4754 c 0,8.3041 -5.998,12.1895 -15.445,12.1895 -9.372,0 -15.37,-3.6569 -15.37,-12.1895 0,-8.5326 6.073,-11.7323 15.37,-11.7323 9.372,0 15.445,3.4283 15.445,11.7323 z m 15.67,-0.3809 c 0,-16.5319 -12.896,-23.9217 -31.115,-23.9217 -18.294,0 -30.74,7.3898 -30.74,23.9217 0,16.4558 11.621,25.2935 30.665,25.2935 19.194,0 31.19,-8.8377 31.19,-25.2935 z"
     fill="#ffffff"
     id="path8" />
  <defs
     id="defs9">
    <linearGradient
       id="paint0_linear_1_33"
       x1="61.000301"
       y1="136"
       x2="104.622"
       y2="115.39"
       gradientUnits="userSpaceOnUse"
       gradientTransform="translate(-40,-36)">
      <stop
         stop-color="#D83333"
         id="stop8" />
      <stop
         offset="1"
         stop-color="#F041FF"
         id="stop9" />
    </linearGradient>
  </defs>
</svg>
